<svg xmlns="http://www.w3.org/2000/svg" viewBox="0 0 1600 900" fill="none">
  <g stroke="#2478E8" stroke-width="2" stroke-linecap="round" stroke-linejoin="round" opacity=".72">
    <path d="M0 118h112l42 42h126l52 52h210l44 44h82"/>
    <path d="M0 224h74l58 58h170l42 42h180l40 40h78"/>
    <path d="M0 690h122l54-54h118l54-54h190l46-46h80"/>
    <path d="M0 790h86l46-46h140l60-60h190l42-42h84"/>
    <path d="M1600 104h-108l-48 48h-142l-44 44h-202l-42 42h-82"/>
    <path d="M1600 242h-76l-54 54h-160l-46 46h-180l-40 40h-78"/>
    <path d="M1600 674h-102l-50-50h-124l-56-56h-188l-46-46h-82"/>
    <path d="M1600 806h-90l-44-44h-154l-52-52h-186l-44-44h-82"/>
  </g>
  <g stroke="#19B9B5" stroke-width="2" opacity=".62">
    <path d="M98 0v84l42 42"/>
    <path d="M258 0v102l48 48"/>
    <path d="M1338 0v96l-44 44"/>
    <path d="M1492 0v86l-48 48"/>
    <path d="M116 900v-82l44-44"/>
    <path d="M278 900v-96l46-46"/>
    <path d="M1322 900v-88l-46-46"/>
    <path d="M1498 900v-104l-42-42"/>
  </g>
  <g fill="#071521" stroke="#2478E8" stroke-width="3">
    <circle cx="112" cy="118" r="7"/><circle cx="280" cy="160" r="7"/><circle cx="344" cy="324" r="7"/>
    <circle cx="122" cy="690" r="7"/><circle cx="294" cy="636" r="7"/><circle cx="332" cy="684" r="7"/>
    <circle cx="1492" cy="104" r="7"/><circle cx="1302" cy="152" r="7"/><circle cx="1264" cy="342" r="7"/>
    <circle cx="1498" cy="674" r="7"/><circle cx="1324" cy="624" r="7"/><circle cx="1260" cy="710" r="7"/>
  </g>
  <g fill="#19B9B5">
    <circle cx="154" cy="160" r="5"/><circle cx="176" cy="636" r="5"/><circle cx="1444" cy="152" r="5"/><circle cx="1448" cy="624" r="5"/>
    <circle cx="306" cy="150" r="5"/><circle cx="324" cy="758" r="5"/><circle cx="1294" cy="140" r="5"/><circle cx="1276" cy="766" r="5"/>
  </g>
  <g fill="#071521" stroke="#19B9B5" stroke-width="3">
    <circle cx="668" cy="256" r="7"/><circle cx="642" cy="364" r="7"/><circle cx="664" cy="536" r="7"/><circle cx="648" cy="642" r="7"/>
    <circle cx="932" cy="238" r="7"/><circle cx="1066" cy="382" r="7"/><circle cx="952" cy="522" r="7"/><circle cx="988" cy="666" r="7"/>
  </g>
</svg>
